<svg xmlns="http://www.w3.org/2000/svg" viewBox="0 0 48 48"><defs><style>.cls-1{fill:#fff;}</style></defs><title>ÍconosArtboard 6</title><g id="Layer_2" data-name="Layer 2"><path d="M36.24,18.33a.55.55,0,0,0-.79,0l-2.93,2.93a7.8,7.8,0,0,0-1.69-.62,6.2,6.2,0,0,0,1-.79,6.83,6.83,0,0,0,1.81-4.68l1.75-1.75a.56.56,0,0,0-.79-.79l-1.75,1.75a6.82,6.82,0,0,0-4.63,1.81,5.36,5.36,0,0,0-.85,1.13,6.21,6.21,0,0,0-.68-1.86l2.93-2.93a.56.56,0,0,0-.79-.79l-3.16,3.16a7.73,7.73,0,0,0-3.1,3.5.35.35,0,0,0-.23.06c-.4.26-.58.32-.8.48a6.11,6.11,0,0,0-2.82,4.68,6.92,6.92,0,0,0,.37,2.51,6.81,6.81,0,0,0,.6,1.35l-8,8a.55.55,0,0,0,0,.79.55.55,0,0,0,.79,0l8-8a8.32,8.32,0,0,0,3.61,1,5.68,5.68,0,0,0,1.41-.17,6,6,0,0,0,2.77-1.63,7.91,7.91,0,0,0,1.14-1.42c.06-.09.1-.19.15-.28a1,1,0,0,0,.06-.39,7.48,7.48,0,0,0,3.44-3.1l3.16-3.16A.55.55,0,0,0,36.24,18.33ZM29,17a6.09,6.09,0,0,1,3.5-1.47A5.53,5.53,0,0,1,31.05,19a5.64,5.64,0,0,1-3.5,1.47A5.73,5.73,0,0,1,29,17Zm-5.64,2.14a6.13,6.13,0,0,1,2.31-3,5.44,5.44,0,0,1,.51,3.84A5.61,5.61,0,0,1,24,22.84a7.56,7.56,0,0,0-.68-3.5A.43.43,0,0,1,23.38,19.12Zm-1.12.62a5.16,5.16,0,0,1-1.73,6.9A5.16,5.16,0,0,1,22.26,19.74Zm-.64,7.9a5.16,5.16,0,0,1,6.83-2A5.16,5.16,0,0,1,21.62,27.64Zm7.12-3.17a.34.34,0,0,1-.23.06,7.46,7.46,0,0,0-2.82-.62A2.74,2.74,0,0,0,25,24a5.44,5.44,0,0,1,3-2.26,5.93,5.93,0,0,1,3.78.45A5.89,5.89,0,0,1,28.74,24.48Z"/><line className="cls-1" x1="8.99" y1="5.86" x2="39.27" y2="42.2"/><rect x="23.63" y="0.38" width="1" height="47.3" transform="translate(-9.79 21.01) rotate(-39.8)"/><path d="M24,0A24,24,0,1,0,48,24,24,24,0,0,0,24,0Zm0,1A23,23,0,1,1,1,24,23,23,0,0,1,24,1Z"/></g></svg>